<svg xmlns="http://www.w3.org/2000/svg" viewBox="0 0 96.1 96.3"><defs><style>.cls-1{fill:#3b474f;}.cls-2{fill:none;}</style></defs><title>facebook</title><g id="Layer_2" data-name="Layer 2"><g id="Capa_1" data-name="Capa 1"><path class="cls-1" d="M72.1,0H59.6c-14,0-23.1,9.3-23.1,23.7V34.6H24a2,2,0,0,0-2,2V52.4a2,2,0,0,0,2,2H36.5V94.3a2,2,0,0,0,2,2H54.9a2,2,0,0,0,2-2v-40H71.6a2,2,0,0,0,2-2V36.5a2.05,2.05,0,0,0-2-2H56.8V25.3c0-4.4,1.1-6.7,6.8-6.7H72a2,2,0,0,0,2-2V2A1.92,1.92,0,0,0,72.1,0Z"/><rect class="cls-2" width="96.1" height="96.1"/></g></g></svg>