<svg xmlns="http://www.w3.org/2000/svg" viewBox="0 0 300 300"><defs><style>.cls-1{fill:#3b474f;}</style></defs><title>Asset 1</title><g id="Layer_2" data-name="Layer 2"><g id="Layer_1-2" data-name="Layer 1"><g id="_Group_" data-name="&lt;Group&gt;"><path id="_Compound_Path_" data-name="&lt;Compound Path&gt;" class="cls-1" d="M38.5,0h223A38.58,38.58,0,0,1,300,38.5v223A38.58,38.58,0,0,1,261.5,300H38.5A38.58,38.58,0,0,1,0,261.5V38.5A38.58,38.58,0,0,1,38.5,0Zm180,33.3A13.57,13.57,0,0,0,205,46.8V79.1a13.57,13.57,0,0,0,13.5,13.5h33.9a13.57,13.57,0,0,0,13.5-13.5V46.9a13.57,13.57,0,0,0-13.5-13.5C252.4,33.3,218.5,33.3,218.5,33.3Zm47.6,93.6H239.7a88,88,0,0,1,3.9,25.8c0,49.9-41.8,90.3-93.3,90.3S57,202.5,57,152.6a88,88,0,0,1,3.9-25.8H33.3V253.5a11.93,11.93,0,0,0,11.9,11.9H254.1A11.86,11.86,0,0,0,266,253.5V126.9ZM150.3,91C117,91,90,117.1,90,149.4s27,58.4,60.2,58.4,60.3-26.1,60.3-58.4S183.6,91,150.3,91Z"/></g></g></g></svg>