<svg xmlns="http://www.w3.org/2000/svg" viewBox="0 0 74.99 74.99"><defs><style>.cls-1{fill:#3b474f;}</style></defs><title>link</title><g id="Layer_2" data-name="Layer 2"><g id="Layer_1-2" data-name="Layer 1"><path class="cls-1" d="M5,46A17,17,0,1,0,29,70L43.15,55.88A17,17,0,0,0,44,32.72a3,3,0,0,0-4.54,3.95h0a10.9,10.9,0,0,1-.55,15L24.77,65.78A11,11,0,1,1,9.21,50.22L23.35,36.08a3,3,0,1,0-4.18-4.3l-.06.06L5,46ZM31.84,19.11A17,17,0,0,0,31,42.27a3,3,0,0,0,4.53-4h0a10.9,10.9,0,0,1,.55-15L50.22,9.21A11,11,0,1,1,65.78,24.77L51.64,38.91a3,3,0,1,0,4.19,4.3l.06-.06L70,29A17,17,0,1,0,46,5Z"/></g></g></svg>