<svg xmlns="http://www.w3.org/2000/svg" xmlns:xlink="http://www.w3.org/1999/xlink" viewBox="0 0 214 107.24"><defs><style>.cls-1{fill:none;}.cls-2{fill:#3b474f;}.cls-3{clip-path:url(#clip-path);}.cls-4{fill:#ff5350;}.cls-5{clip-path:url(#clip-path-2);}.cls-6{clip-path:url(#clip-path-3);}.cls-7{clip-path:url(#clip-path-4);}</style><clipPath id="clip-path" transform="translate(0 -2.3)"><rect class="cls-1" x="107.43" y="0.06" width="10.51" height="19.64" transform="translate(-0.11 1.4) rotate(-0.71)"/></clipPath><clipPath id="clip-path-2" transform="translate(0 -2.3)"><rect class="cls-1" x="97.59" y="47.25" width="10.51" height="19.64" transform="matrix(1, -0.01, 0.01, 1, -0.7, 1.28)"/></clipPath><clipPath id="clip-path-3" transform="translate(0 -2.3)"><rect class="cls-1" x="121.62" y="33.07" width="19.64" height="10.51" transform="matrix(1, -0.01, 0.01, 1, -0.46, 1.63)"/></clipPath><clipPath id="clip-path-4" transform="translate(0 -2.3)"><rect class="cls-1" x="74.4" y="23.24" width="19.64" height="10.51" transform="translate(-0.35 1.05) rotate(-0.71)"/></clipPath></defs><title>UPDATED_logo_color</title><g id="Layer_2" data-name="Layer 2"><g id="Layer_1-2" data-name="Layer 1"><g id="Layer_2-2" data-name="Layer 2"><g id="Layer_1-2-2" data-name="Layer 1-2"><path class="cls-2" d="M107.5,16a17.32,17.32,0,0,1,9.08,2.42L107.33,2.3,98.49,18.69A17.32,17.32,0,0,1,107.5,16Z" transform="translate(0 -2.3)"/><g class="cls-3"><path class="cls-4" d="M107.5,16a17.32,17.32,0,0,1,9.08,2.42L107.33,2.3,98.49,18.69A17.32,17.32,0,0,1,107.5,16Z" transform="translate(0 -2.3)"/></g><polygon class="cls-4" points="107.33 0 98.5 16.41 99.19 15.97 107.34 0.76 107.33 0"/><path class="cls-2" d="M108,50.91a17.32,17.32,0,0,1-9.08-2.42l9.25,16.16L117,48.26A17.32,17.32,0,0,1,108,50.91Z" transform="translate(0 -2.3)"/><g class="cls-5"><path class="cls-4" d="M108,50.91a17.32,17.32,0,0,1-9.08-2.42l9.25,16.16L117,48.26A17.32,17.32,0,0,1,108,50.91Z" transform="translate(0 -2.3)"/></g><polygon class="cls-4" points="108.19 62.34 117.03 45.94 116.34 46.38 108.19 61.59 108.19 62.34"/><path class="cls-2" d="M125.29,33.14a17.32,17.32,0,0,1-2.42,9.08L139,33l-16.39-8.84A17.32,17.32,0,0,1,125.29,33.14Z" transform="translate(0 -2.3)"/><g class="cls-6"><path class="cls-4" d="M125.29,33.14a17.32,17.32,0,0,1-2.42,9.08L139,33l-16.39-8.84A17.32,17.32,0,0,1,125.29,33.14Z" transform="translate(0 -2.3)"/></g><polygon class="cls-4" points="139.03 30.66 122.62 21.83 123.06 22.52 138.27 30.68 139.03 30.66"/><path class="cls-2" d="M90.38,33.66a17.32,17.32,0,0,1,2.42-9.08L76.64,33.83,93,42.67A17.32,17.32,0,0,1,90.38,33.66Z" transform="translate(0 -2.3)"/><g class="cls-7"><path class="cls-4" d="M90.38,33.66a17.32,17.32,0,0,1,2.42-9.08L76.64,33.83,93,42.67A17.32,17.32,0,0,1,90.38,33.66Z" transform="translate(0 -2.3)"/></g><polygon class="cls-4" points="76.64 31.53 93.04 40.36 92.6 39.67 77.4 31.52 76.64 31.53"/><path class="cls-2" d="M12.68,92.53H7.34v17H0v-43H16.5c8.31,0,13.47,5.76,13.47,13A12.13,12.13,0,0,1,20.26,91.8L30,109.52H21.72Zm2.49-6.43c4.49,0,7.4-2.61,7.4-6.55s-2.91-6.61-7.4-6.61H7.34V86.1Z" transform="translate(0 -2.3)"/><path class="cls-2" d="M71.28,98.72H53.08l-4,10.8h-7.7l16.74-43h8.43l16.74,43H75.35ZM55.63,92h13.1L62.18,74.39Z" transform="translate(0 -2.3)"/><path class="cls-2" d="M120.42,66.5h7.71l-16.26,43h-7.4l-16-43h7.89l12,33.49Z" transform="translate(0 -2.3)"/><path class="cls-2" d="M142.61,109.52v-43h7.28v36.1h19.72v6.92Z" transform="translate(0 -2.3)"/><path class="cls-2" d="M187.39,109.52v-43H214V73.3H194.67V84.7h17.47v6.61H194.67v11.41H214v6.79Z" transform="translate(0 -2.3)"/></g></g></g></g></svg>