<?xml version="1.0" encoding="utf-8"?>
<!-- Generator: Adobe Illustrator 21.1.0, SVG Export Plug-In . SVG Version: 6.00 Build 0)  -->
<svg version="1.1" id="Layer_1" xmlns="http://www.w3.org/2000/svg" xmlns:xlink="http://www.w3.org/1999/xlink" x="0px" y="0px"
	 viewBox="0 0 25.1 25.1" style="enable-background:new 0 0 25.1 25.1;" xml:space="preserve">
<style type="text/css">
	.st0{fill:#3B474F;}
	.st1{clip-path:url(#SVGID_2_);}
	.st2{fill:#FF5350;}
	.st3{clip-path:url(#SVGID_4_);}
	.st4{clip-path:url(#SVGID_6_);}
	.st5{clip-path:url(#SVGID_8_);}
</style>
<title>logo</title>
<g id="Layer_2">
	<g id="Layer_1-2">
		<path class="st0" d="M12.4,5.5c1.3,0,2.5,0.4,3.7,1L12.4,0L8.8,6.6C9.9,5.9,11.1,5.5,12.4,5.5z"/>
		<g>
			<defs>
				
					<rect id="SVGID_1_" x="12.4" y="-0.9" transform="matrix(0.9999 -1.239152e-02 1.239152e-02 0.9999 -3.685128e-02 0.1799)" width="4.2" height="7.9"/>
			</defs>
			<clipPath id="SVGID_2_">
				<use xlink:href="#SVGID_1_"  style="overflow:visible;"/>
			</clipPath>
			<g class="st1">
				<path class="st2" d="M12.4,5.5c1.3,0,2.5,0.4,3.7,1L12.4,0L8.8,6.6C9.9,5.9,11.1,5.5,12.4,5.5z"/>
			</g>
		</g>
		<polygon class="st2" points="12.4,0 8.8,6.6 9.1,6.4 12.4,0.3 		"/>
		<path class="st0" d="M12.6,19.5c-1.3,0-2.5-0.4-3.7-1l3.7,6.5l3.6-6.6C15.2,19.2,13.9,19.5,12.6,19.5z"/>
		<g>
			<defs>
				
					<rect id="SVGID_3_" x="8.4" y="18.2" transform="matrix(1 -9.948213e-03 9.948213e-03 1 -0.2196 0.1057)" width="4.2" height="7.9"/>
			</defs>
			<clipPath id="SVGID_4_">
				<use xlink:href="#SVGID_3_"  style="overflow:visible;"/>
			</clipPath>
			<g class="st3">
				<path class="st2" d="M12.6,19.5c-1.3,0-2.5-0.4-3.7-1l3.7,6.5l3.6-6.6C15.2,19.2,13.9,19.5,12.6,19.5z"/>
			</g>
		</g>
		<polygon class="st2" points="12.7,25.1 16.2,18.5 16,18.7 12.7,24.8 		"/>
		<path class="st0" d="M19.6,12.4c0,1.3-0.4,2.5-1,3.7l6.5-3.7l-6.6-3.5C19.2,9.9,19.5,11.1,19.6,12.4z"/>
		<g>
			<defs>
				
					<rect id="SVGID_5_" x="18.1" y="12.5" transform="matrix(1 -9.948213e-03 9.948213e-03 1 -0.1444 0.2196)" width="7.9" height="4.2"/>
			</defs>
			<clipPath id="SVGID_6_">
				<use xlink:href="#SVGID_5_"  style="overflow:visible;"/>
			</clipPath>
			<g class="st4">
				<path class="st2" d="M19.6,12.4c0,1.3-0.4,2.5-1,3.7l6.5-3.7l-6.6-3.5C19.2,9.9,19.5,11.1,19.6,12.4z"/>
			</g>
		</g>
		<polygon class="st2" points="25.1,12.4 18.5,8.8 18.7,9.1 24.8,12.4 		"/>
		<path class="st0" d="M5.6,12.6c0-1.3,0.4-2.5,1-3.7L0,12.7l6.6,3.5C5.9,15.2,5.6,13.9,5.6,12.6z"/>
		<g>
			<defs>
				
					<rect id="SVGID_7_" x="-0.9" y="8.4" transform="matrix(0.9999 -1.239152e-02 1.239152e-02 0.9999 -0.1301 3.880418e-02)" width="7.9" height="4.2"/>
			</defs>
			<clipPath id="SVGID_8_">
				<use xlink:href="#SVGID_7_"  style="overflow:visible;"/>
			</clipPath>
			<g class="st5">
				<path class="st2" d="M5.6,12.6c0-1.3,0.4-2.5,1-3.7L0,12.7l6.6,3.5C5.9,15.2,5.6,13.9,5.6,12.6z"/>
			</g>
		</g>
		<polygon class="st2" points="0,12.7 6.6,16.2 6.4,16 0.3,12.7 		"/>
	</g>
</g>
</svg>
