<svg xmlns="http://www.w3.org/2000/svg" viewBox="0 0 78 58"><defs><style>.cls-1{fill:#3b474f;}</style></defs><title>Mail</title><g id="Layer_2" data-name="Layer 2"><g id="Layer_1-2" data-name="Layer 1"><path class="cls-1" d="M70.3,0H7.7A7.72,7.72,0,0,0,1.5,3.1L36.2,36.9a4,4,0,0,0,5.6,0L76.1,2.6A7.87,7.87,0,0,0,70.3,0Z"/><path class="cls-1" d="M55.1,29.2,77.9,51.3c0-.3.1-.7.1-1V7.7a5.7,5.7,0,0,0-.1-1.3Z"/><path class="cls-1" d="M22.8,29.4,0,7.2V50.5Z"/><path class="cls-1" d="M76.2,55.2l-24-23.1-7.6,7.6A7.63,7.63,0,0,1,39,42a8,8,0,0,1-5.6-2.3l-7.7-7.5L1.4,54.7A7.68,7.68,0,0,0,7.7,58H70.2A7.66,7.66,0,0,0,76.2,55.2Z"/></g></g></svg>