<svg xmlns="http://www.w3.org/2000/svg" viewBox="0 0 88.77 71.6"><defs><style>.cls-1{fill:#3b474f;}</style></defs><title>twitter</title><g id="Layer_2" data-name="Layer 2"><g id="Layer_1-2" data-name="Layer 1"><path class="cls-1" d="M29.41,71.6C62,70.79,79.73,43.71,79.73,20.18q0-1.18-.05-2.34a36.87,36.87,0,0,0,9.09-9.36,36.63,36.63,0,0,1-10.46,2.85,18.16,18.16,0,0,0,8-10A36.66,36.66,0,0,1,74.75,5.71,18.25,18.25,0,0,0,43.24,18.08a18,18,0,0,0,.47,4.12A51.85,51.85,0,0,1,6.16,3.31,18,18,0,0,0,11.8,27.45a18.25,18.25,0,0,1-8.25-2.26c0,.08,0,.15,0,.23A18.12,18.12,0,0,0,18.16,43.14a18.36,18.36,0,0,1-8.23.31A18.22,18.22,0,0,0,26.95,56,36.73,36.73,0,0,1,4.33,63.75,37.21,37.21,0,0,1,0,63.5H0A51.83,51.83,0,0,0,26.84,71.6h2.57"/></g></g></svg>