<?xml version="1.0" encoding="utf-8"?>
<!-- Generator: Adobe Illustrator 21.1.0, SVG Export Plug-In . SVG Version: 6.00 Build 0)  -->
<svg version="1.1" id="Capa_1" xmlns="http://www.w3.org/2000/svg" xmlns:xlink="http://www.w3.org/1999/xlink" x="0px" y="0px"
	 viewBox="0 0 25 25" style="enable-background:new 0 0 25 25;" xml:space="preserve">
<style type="text/css">
	.st0{fill:#3B474F;}
</style>
<g>
	<path class="st0" d="M21.4,3.4C23.8,3.5,25,4.9,25,7.5c0,0.2,0,0.4,0,0.5c-0.1,2.3-1.8,5.4-5.1,9.3c-3.4,4.1-6.3,6.2-8.6,6.2
		c-1.5,0-2.7-1.3-3.7-3.8l-1-3.5l-1-3.4C4.8,10.4,4,9.2,3.1,9.2c-0.2,0-0.8,0.4-1.9,1.1L0,8.8l1.8-1.5l1.8-1.5
		c1.6-1.3,2.9-2,3.7-2.1c0.1,0,0.2,0,0.3,0c1.7,0,2.8,1.2,3.2,3.7c0.2,1.4,0.4,2.6,0.6,3.5c0.2,0.9,0.3,1.5,0.4,1.9
		c0.6,2.4,1.2,3.5,1.9,3.6c0.5,0,1.3-0.8,2.4-2.3c1-1.6,1.6-2.8,1.7-3.5c0-0.2,0-0.3,0-0.4c0-1-0.6-1.5-1.7-1.5
		c-0.6,0-1.2,0.1-1.8,0.4c1.2-3.6,3.4-5.4,6.8-5.4C21.2,3.4,21.3,3.4,21.4,3.4z"/>
</g>
</svg>
