<?xml version="1.0" encoding="utf-8"?>
<!-- Generator: Adobe Illustrator 21.1.0, SVG Export Plug-In . SVG Version: 6.00 Build 0)  -->
<svg version="1.1" id="Layer_1" xmlns="http://www.w3.org/2000/svg" xmlns:xlink="http://www.w3.org/1999/xlink" x="0px" y="0px"
	 viewBox="0 0 25 25" style="enable-background:new 0 0 25 25;" xml:space="preserve">
<style type="text/css">
	.st0{fill:#3B474F;}
</style>
<g id="XMLID_822_">
	<path id="XMLID_823_" class="st0" d="M24,5.2c-0.9-1.1-2.6-1.5-5.8-1.5H6.7c-3.3,0-4.9,0.5-5.8,1.6S0,8.1,0,10.3v4.3
		c0,4.4,1,6.6,6.7,6.6h11.6c2.8,0,4.3-0.4,5.3-1.3c1-1,1.4-2.6,1.4-5.3v-4.3C25,7.9,24.9,6.3,24,5.2z M16.1,13.1l-5.2,2.7
		c-0.1,0.1-0.2,0.1-0.4,0.1c-0.1,0-0.3,0-0.4-0.1c-0.2-0.1-0.4-0.4-0.4-0.7V9.7C9.6,9.4,9.8,9.1,10,9s0.5-0.2,0.8,0l5.2,2.7
		c0.3,0.1,0.4,0.4,0.4,0.7C16.5,12.7,16.3,13,16.1,13.1z"/>
</g>
</svg>
